<svg xmlns="http://www.w3.org/2000/svg" viewBox="0 0 102.38 102.38"><defs><style>.cls-1{fill:#202060;}.cls-2{font-size:15px;font-family:Seravek-Bold, Seravek;font-weight:700;letter-spacing:0.03em;}.cls-2,.cls-3{fill:#fff;}.cls-4{fill:none;stroke:#fff;stroke-miterlimit:10;stroke-width:0.5px;}</style></defs><title>Asset 3</title><g id="Layer_2" data-name="Layer 2"><g id="hotel"><rect class="cls-1" width="102.38" height="102.38"/><text class="cls-2" transform="translate(32.16 72.87)">hotel.</text><path class="cls-3" d="M61,23H41.6V54.76H61V23ZM53.4,54.76H49.19l0-6.44H53.4Zm6.52-.55H54V47.76H48.64v6.45h-6V24.05H59.92Z"/><path class="cls-3" d="M42.17,36.89H32.5a.28.28,0,0,0-.28.3V54h.57V37.49h9.1V54.16H41.6v.6h.57a.28.28,0,0,0,.28-.3V37.19A.28.28,0,0,0,42.17,36.89Z"/><path class="cls-3" d="M69.88,32.3H60.21a.34.34,0,0,0-.29.37V53.34h.57V33.05h9.1V53.51h0v.74h.53c.07,0,0,0,0-.37V32.67C70.16,32.47,70,32.3,69.88,32.3Z"/><rect class="cls-4" x="47.38" y="27.77" width="2.43" height="2.43"/><rect class="cls-4" x="52.8" y="27.77" width="2.43" height="2.43"/><rect class="cls-4" x="47.38" y="32.13" width="2.43" height="2.43"/><rect class="cls-4" x="52.8" y="32.13" width="2.43" height="2.43"/><rect class="cls-4" x="47.38" y="36.49" width="2.43" height="2.43"/><rect class="cls-4" x="52.8" y="36.49" width="2.43" height="2.43"/><rect class="cls-4" x="47.38" y="40.85" width="2.43" height="2.43"/><rect class="cls-4" x="63.83" y="40.85" width="2.43" height="2.43"/><rect class="cls-4" x="63.83" y="45.21" width="2.43" height="2.43"/><rect class="cls-4" x="36.34" y="40.85" width="2.43" height="2.43"/><rect class="cls-4" x="36.34" y="45.21" width="2.43" height="2.43"/><rect class="cls-4" x="52.8" y="40.85" width="2.43" height="2.43"/></g></g></svg>