<svg xmlns="http://www.w3.org/2000/svg" width="18.84" height="19.962" viewBox="0 0 18.84 19.962">
  <defs>
    <style>
      .cls-1 {
        fill: #fff;
      }
    </style>
  </defs>
  <g id="icon" transform="translate(-0.959 5.59) rotate(-22)">
    <path id="Path_1" data-name="Path 1" class="cls-1" d="M7.039,11.326c.087,1.508-.227,2.1-1.276,2.273a2.171,2.171,0,0,1-2.272-2.021c-.094-.59-.188-1.789-.308-2.314l-.9-2.536c-.052-.224-.646-1.292-.74-1.757A1.746,1.746,0,0,1,2.9,2.913L4.556,2.58c.247-.051.984-.1.984-.1a1.341,1.341,0,0,1,1.5,1.535C7.04,4.6,6,5.506,6,5.506s-1.472,1.417-.957,2.47S6.728,9.333,7.039,11.326Zm-1.175-9.1c.418,0,.758-.5.758-1.112S6.282,0,5.864,0,5.1.5,5.1,1.11s.343,1.112.764,1.112ZM4.249,2.109c.269-.038.442-.388.385-.782S4.314.645,4.045.684s-.441.388-.385.782S3.98,2.147,4.249,2.109ZM3.1,2.421c.195-.046.3-.314.231-.6s-.28-.478-.474-.432-.3.313-.23.6S2.9,2.467,3.1,2.421Zm-.931.61c.17-.067.228-.324.129-.573s-.316-.4-.486-.329-.228.324-.129.573.317.4.484.329ZM1.153,3.1c-.113.044-.152.214-.087.38s.21.263.323.219.152-.215.087-.38S1.266,3.058,1.153,3.1ZM13.091,5.5l-1.615-.473c-.242-.072-.972-.183-.972-.183a1.341,1.341,0,0,0-1.625,1.4c-.052.583.907,1.572.907,1.572s1.346,1.538.742,2.542-1.8,1.209-2.274,3.166C8.038,15.017,8.3,15.64,9.329,15.9a2.174,2.174,0,0,0,2.438-1.818c.145-.582.34-1.768.506-2.281l1.114-2.449c.071-.22.754-1.232.888-1.687a1.747,1.747,0,0,0-1.184-2.156ZM10.2,4.564c.418.036.8-.43.852-1.042s-.243-1.136-.662-1.172-.8.43-.852,1.042S9.784,4.529,10.2,4.564Zm1.619.026c.264.061.551-.2.641-.59s-.053-.75-.317-.811-.551.2-.64.59.055.75.318.811ZM12.941,5c.189.062.416-.112.508-.389s.012-.553-.177-.615-.417.112-.509.389S12.751,4.937,12.941,5Zm1.308-.178c-.165-.082-.4.045-.514.285s-.083.5.082.582.4-.045.514-.285.082-.5-.082-.583Zm.572,1.024c-.109-.054-.262.031-.342.19s-.055.333.055.387.262-.03.342-.19.055-.333-.055-.388Z"/>
  </g>
</svg>
