<svg xmlns="http://www.w3.org/2000/svg" viewBox="0 0 102.38 102.38"><defs><style>.cls-1{fill:#e9d715;}.cls-2{font-size:15px;font-family:Seravek-Bold, Seravek;font-weight:700;letter-spacing:0.03em;}.cls-3{letter-spacing:0.03em;}.cls-4{letter-spacing:0.04em;}</style></defs><title>Asset 5</title><g id="Layer_2" data-name="Layer 2"><g id="rental"><rect class="cls-1" width="102.38" height="102.38"/><text class="cls-2" transform="translate(26.98 65.79)">re<tspan class="cls-3" x="14.38" y="0">n</tspan><tspan class="cls-4" x="23.56" y="0">t</tspan><tspan x="30.15" y="0">al.</tspan></text><path d="M55.05,44H43.62a.5.5,0,0,1-.5-.5.5.5,0,0,1,.5-.5H55.05a.5.5,0,0,1,.5.5A.51.51,0,0,1,55.05,44Z"/><path d="M40.9,46.76a3.22,3.22,0,1,1,3.22-3.22A3.22,3.22,0,0,1,40.9,46.76Zm0-5.44a2.22,2.22,0,1,0,2.22,2.22A2.21,2.21,0,0,0,40.9,41.32Z"/><path d="M57.77,46.76A3.22,3.22,0,1,1,61,43.54,3.22,3.22,0,0,1,57.77,46.76Zm0-5.44A2.22,2.22,0,1,0,60,43.54,2.21,2.21,0,0,0,57.77,41.32Z"/><path d="M55.05,44H43.62a.5.5,0,0,1-.5-.5.5.5,0,0,1,.5-.5H55.05a.5.5,0,0,1,.5.5A.5.5,0,0,1,55.05,44Z"/><path d="M62.89,44h-2.4a.5.5,0,0,1-.5-.5.5.5,0,0,1,.5-.5h2.4A1.24,1.24,0,0,0,64.12,42l.54-3.41a.93.93,0,0,0-.17-.67.9.9,0,0,0-.6-.34l-6.66-.82a.47.47,0,0,1-.26-.11l-6-5.06a2.26,2.26,0,0,0-1.43-.52H40.11a1.36,1.36,0,0,0-1.15.63l-2.81,4.4a.49.49,0,0,1-.28.21l-3.4,1a1.07,1.07,0,0,0-.74,1.18l.48,3A1.75,1.75,0,0,0,34,43h4.23a.5.5,0,0,1,.5.5.51.51,0,0,1-.5.5H33.94a2.74,2.74,0,0,1-2.72-2.34l-.48-3.05a2.06,2.06,0,0,1,1.44-2.29l3.22-1,2.72-4.25a2.36,2.36,0,0,1,2-1.09h9.42a3.24,3.24,0,0,1,2.06.75l5.91,5,6.51.79a1.92,1.92,0,0,1,1.28.74,1.85,1.85,0,0,1,.35,1.42l-.53,3.42A2.23,2.23,0,0,1,62.89,44Z"/><path d="M51.88,37.13H40.41a.5.5,0,0,1-.5-.5.5.5,0,0,1,.5-.5H51.88a.51.51,0,0,1,.5.5A.5.5,0,0,1,51.88,37.13Z"/></g></g></svg>