<svg xmlns="http://www.w3.org/2000/svg" viewBox="0 0 102.38 102.38"><defs><style>.cls-1{fill:#4baea0;}.cls-2{font-size:15px;font-family:Seravek-Bold, Seravek;font-weight:700;letter-spacing:0.03em;}.cls-2,.cls-9{fill:#fff;}.cls-3{letter-spacing:0.04em;}.cls-4{letter-spacing:0.03em;}.cls-5{letter-spacing:0.04em;}.cls-6{letter-spacing:0.02em;}.cls-7{letter-spacing:0.03em;}.cls-8{letter-spacing:0.03em;}</style></defs><title>Asset 7</title><g id="Layer_2" data-name="Layer 2"><g id="restaurant"><rect class="cls-1" width="102.38" height="102.38"/><text class="cls-2" transform="translate(10.83 66.86)">r<tspan class="cls-3" x="6.17" y="0">e</tspan><tspan class="cls-4" x="14.46" y="0">s</tspan><tspan class="cls-5" x="21.42" y="0">t</tspan><tspan x="28" y="0">au</tspan><tspan class="cls-6" x="45.67" y="0">r</tspan><tspan class="cls-7" x="51.72" y="0">a</tspan><tspan class="cls-8" x="60.22" y="0">n</tspan><tspan x="69.4" y="0">t.</tspan></text><path class="cls-9" d="M57.59,33.66l1.55-.1h0A3.67,3.67,0,0,0,61.86,32l1.22-1.79a7.28,7.28,0,0,0,1.16-5.31,1.71,1.71,0,0,0-.53-.95,1.68,1.68,0,0,0-1-.41,7.24,7.24,0,0,0-5.13,1.79l-1.64,1.43a3.64,3.64,0,0,0-1.24,2.88h0l.09,1.55a2.2,2.2,0,0,1-.61,1.63L41.43,45.91a1.82,1.82,0,0,0-.5,1.37,2.14,2.14,0,0,0,2.16,2.08h.17a1.88,1.88,0,0,0,1.31-.66L56,34.46A2.19,2.19,0,0,1,57.59,33.66Zm-2.16.3L44,48.19a1,1,0,0,1-.75.37,1.4,1.4,0,0,1-1-.33,1.37,1.37,0,0,1-.45-1,1,1,0,0,1,.27-.79L54.75,33.35a3,3,0,0,0,.82-2.22l-.08-1.54a2.85,2.85,0,0,1,1-2.26l1.64-1.42a6.43,6.43,0,0,1,4.57-1.6.92.92,0,0,1,.52.21.86.86,0,0,1,.27.49,6.49,6.49,0,0,1-1,4.73l-1.23,1.8a2.87,2.87,0,0,1-2.12,1.24l-1.54.09A3,3,0,0,0,55.43,34Z"/><path class="cls-9" d="M63.61,45.81,55.06,38a.39.39,0,0,0-.56,0,.39.39,0,0,0,0,.55l8.55,7.79a1.07,1.07,0,0,1,.32.78,1.38,1.38,0,0,1-.39,1,1.36,1.36,0,0,1-1,.4,1,1,0,0,1-.78-.33l-7.62-8.36a.4.4,0,1,0-.59.53l7.63,8.37a1.85,1.85,0,0,0,1.34.58h0a2.25,2.25,0,0,0,1.54-.63,2.21,2.21,0,0,0,.62-1.57A1.83,1.83,0,0,0,63.61,45.81Z"/><path class="cls-9" d="M42.8,33.59a3.64,3.64,0,0,0,2.39,1h1.55a2.12,2.12,0,0,1,1.59.7L49,36a.39.39,0,0,0,.29.13.38.38,0,0,0,.26-.11.39.39,0,0,0,0-.55l-.68-.75a3,3,0,0,0-2.17-1H45.2A2.84,2.84,0,0,1,43.35,33l-4.48-5.33a.13.13,0,0,1,0-.18.14.14,0,0,1,.2,0l4.08,4.08a1,1,0,0,0,1.46,0l.48-.48h0l.86-.85h0l.48-.48a1.05,1.05,0,0,0,0-1.47l-4.09-4.08a.14.14,0,0,1,.19-.2l5.33,4.49a2.85,2.85,0,0,1,.74,1.85v1.54a3,3,0,0,0,1,2.17l.73.67a.41.41,0,0,0,.56,0,.39.39,0,0,0,0-.56l-.72-.66a2.16,2.16,0,0,1-.71-1.59V30.36h0a3.67,3.67,0,0,0-1-2.39l0,0L43,23.43a.91.91,0,0,0-1.25.05.93.93,0,0,0,0,1.31l4.09,4.08a.26.26,0,0,1,0,.35l-.2.2-4.55-4.55a.4.4,0,0,0-.56,0,.39.39,0,0,0,0,.56L45.11,30l-.3.29-4.55-4.55a.39.39,0,0,0-.55,0,.39.39,0,0,0,0,.56l4.55,4.55-.2.2a.24.24,0,0,1-.35,0L39.62,27a.92.92,0,0,0-1.3,0,.91.91,0,0,0-.06,1.25l4.51,5.35Z"/></g></g></svg>