<svg xmlns="http://www.w3.org/2000/svg" viewBox="0 0 102.38 102.38"><defs><style>.cls-1{fill:#688773;}.cls-2,.cls-3{fill:#fff;}.cls-3{font-size:15px;font-family:Seravek-Bold, Seravek;font-weight:700;letter-spacing:0.03em;}.cls-4{letter-spacing:0.02em;}.cls-5{letter-spacing:0.03em;}.cls-6{letter-spacing:0.03em;}.cls-7{letter-spacing:0.03em;}</style></defs><title>Asset 6</title><g id="Layer_2" data-name="Layer 2"><g id="travel"><rect class="cls-1" width="102.38" height="102.38"/><path class="cls-2" d="M55.67,35H53.43V30.85h.75a.38.38,0,0,0,.37-.37V29.36a.38.38,0,0,0-.37-.38h-6a.38.38,0,0,0-.37.38v1.12a.38.38,0,0,0,.37.37H49V35H46.71a1.87,1.87,0,0,0-1.87,1.86V48.4a1.89,1.89,0,0,0,1.87,1.87V51a.38.38,0,0,0,.37.38h1.5A.38.38,0,0,0,49,51v-.74h4.48V51a.38.38,0,0,0,.38.38H55.3a.38.38,0,0,0,.37-.38v-.74a1.88,1.88,0,0,0,1.87-1.87V36.82A1.87,1.87,0,0,0,55.67,35Zm-7.09-5.23h5.23v.37H48.58Zm1.12,1.12h3V35h-3ZM48.2,50.64h-.74v-.37h.74Zm6.73,0h-.75v-.37h.75Zm1.86-2.24a1.12,1.12,0,0,1-1.12,1.12h-9a1.12,1.12,0,0,1-1.12-1.12V36.82a1.12,1.12,0,0,1,1.12-1.12h9a1.12,1.12,0,0,1,1.12,1.12Z"/><path class="cls-2" d="M51.19,36.45a.38.38,0,0,0-.37.37V48.4a.37.37,0,0,0,.37.37.36.36,0,0,0,.37-.37V36.82A.37.37,0,0,0,51.19,36.45Z"/><path class="cls-2" d="M54.18,37.2a.37.37,0,0,0-.37.37V47.65a.37.37,0,0,0,.37.38.38.38,0,0,0,.37-.38V37.57A.38.38,0,0,0,54.18,37.2Z"/><path class="cls-2" d="M48.2,37.2a.38.38,0,0,0-.37.37V47.65a.38.38,0,1,0,.75,0V37.57A.38.38,0,0,0,48.2,37.2Z"/><text class="cls-3" transform="translate(27.66 66.86)">t<tspan class="cls-4" x="6.54" y="0">r</tspan><tspan class="cls-5" x="12.58" y="0">a</tspan><tspan class="cls-6" x="21.01" y="0">v</tspan><tspan class="cls-7" x="29.08" y="0">el.</tspan></text></g></g></svg>