<svg xmlns="http://www.w3.org/2000/svg" viewBox="0 0 102.38 102.38"><defs><style>.cls-1{fill:#01d28e;}.cls-2{font-size:15px;font-family:Seravek-Bold, Seravek;font-weight:700;letter-spacing:0.03em;}.cls-2,.cls-5{fill:#fff;}.cls-3{letter-spacing:0em;}.cls-4{letter-spacing:0.03em;}</style></defs><title>Asset 8</title><g id="Layer_2" data-name="Layer 2"><g id="user"><rect class="cls-1" width="102.38" height="102.38"/><text class="cls-2" transform="translate(33.79 68.39)">use<tspan class="cls-3" x="24.39" y="0">r</tspan><tspan class="cls-4" x="30.03" y="0">.</tspan></text><path class="cls-5" d="M58,45.71,54.4,43.9a1,1,0,0,1-.55-.9V41.72l.27-.36a8.94,8.94,0,0,0,1.12-2.2,1.51,1.51,0,0,0,.88-1.37V36.27a1.51,1.51,0,0,0-.38-1v-2A3.37,3.37,0,0,0,55,30.79a4.77,4.77,0,0,0-3.76-1.34,4.74,4.74,0,0,0-3.75,1.34,3.4,3.4,0,0,0-.8,2.47v2a1.51,1.51,0,0,0-.38,1v1.52A1.51,1.51,0,0,0,46.83,39a8.07,8.07,0,0,0,1.33,2.74V43a1,1,0,0,1-.52.87l-3.38,1.85a3.42,3.42,0,0,0-1.79,3v1.23c0,1.8,5.71,2.27,8.72,2.27s8.72-.47,8.72-2.27V48.77A3.39,3.39,0,0,0,58,45.71Zm1.13,4.21c0,.51-2.81,1.52-8,1.52s-8-1-8-1.52V48.69a2.64,2.64,0,0,1,1.39-2.33L48,44.51A1.75,1.75,0,0,0,48.92,43V41.44l-.09-.1a7.12,7.12,0,0,1-1.29-2.68l0-.15-.13-.09a.75.75,0,0,1-.35-.63V36.27a.74.74,0,0,1,.26-.56l.12-.11V33.19a2.63,2.63,0,0,1,.61-1.9,4,4,0,0,1,3.18-1.08,4.09,4.09,0,0,1,3.18,1.07A2.67,2.67,0,0,1,55,33.19V35.6l.13.11a.77.77,0,0,1,.25.56v1.52a.75.75,0,0,1-.54.72l-.19.06-.06.18a7.84,7.84,0,0,1-1.07,2.17,3.93,3.93,0,0,1-.32.41l-.09.11V43a1.74,1.74,0,0,0,1,1.57l3.62,1.82a2.63,2.63,0,0,1,1.47,2.38Z"/></g></g></svg>